<mxfile host="Electron" agent="Mozilla/5.0 (Windows NT 10.0; Win64; x64) AppleWebKit/537.36 (KHTML, like Gecko) draw.io/28.1.2 Chrome/138.0.7204.243 Electron/37.4.0 Safari/537.36" version="28.1.2">
  <diagram name="Page-1" id="e56a1550-8fbb-45ad-956c-1786394a9013">
    <mxGraphModel dx="1028" dy="611" grid="1" gridSize="10" guides="1" tooltips="1" connect="1" arrows="1" fold="1" page="1" pageScale="1" pageWidth="1100" pageHeight="850" background="none" math="0" shadow="0">
      <root>
        <mxCell id="0" />
        <mxCell id="1" parent="0" />
        <mxCell id="ei4-Yj0OnqYiABqFhU_M-1" value="Band" style="swimlane;childLayout=stackLayout;horizontal=1;startSize=50;horizontalStack=0;rounded=1;fontSize=14;fontStyle=0;strokeWidth=2;resizeParent=0;resizeLast=1;shadow=0;dashed=0;align=center;arcSize=4;whiteSpace=wrap;html=1;" parent="1" vertex="1">
          <mxGeometry x="320" y="40" width="160" height="120" as="geometry" />
        </mxCell>
        <mxCell id="ei4-Yj0OnqYiABqFhU_M-2" value="&lt;u&gt;bandnaam&lt;/u&gt;&lt;div&gt;genre&lt;/div&gt;&lt;div&gt;jaar&lt;/div&gt;" style="align=left;strokeColor=none;fillColor=none;spacingLeft=4;spacingRight=4;fontSize=12;verticalAlign=top;resizable=0;rotatable=0;part=1;html=1;whiteSpace=wrap;" parent="ei4-Yj0OnqYiABqFhU_M-1" vertex="1">
          <mxGeometry y="50" width="160" height="70" as="geometry" />
        </mxCell>
        <mxCell id="ei4-Yj0OnqYiABqFhU_M-3" value="Lied" style="swimlane;childLayout=stackLayout;horizontal=1;startSize=50;horizontalStack=0;rounded=1;fontSize=14;fontStyle=0;strokeWidth=2;resizeParent=0;resizeLast=1;shadow=0;dashed=0;align=center;arcSize=4;whiteSpace=wrap;html=1;" parent="1" vertex="1">
          <mxGeometry x="600" y="40" width="160" height="120" as="geometry" />
        </mxCell>
        <mxCell id="ei4-Yj0OnqYiABqFhU_M-4" value="&lt;u&gt;titel&lt;/u&gt;&lt;div&gt;lengte&lt;/div&gt;&lt;div&gt;album&lt;/div&gt;" style="align=left;strokeColor=none;fillColor=none;spacingLeft=4;spacingRight=4;fontSize=12;verticalAlign=top;resizable=0;rotatable=0;part=1;html=1;whiteSpace=wrap;" parent="ei4-Yj0OnqYiABqFhU_M-3" vertex="1">
          <mxGeometry y="50" width="160" height="70" as="geometry" />
        </mxCell>
        <mxCell id="ei4-Yj0OnqYiABqFhU_M-5" value="Muzikant" style="swimlane;childLayout=stackLayout;horizontal=1;startSize=50;horizontalStack=0;rounded=1;fontSize=14;fontStyle=0;strokeWidth=2;resizeParent=0;resizeLast=1;shadow=0;dashed=0;align=center;arcSize=4;whiteSpace=wrap;html=1;" parent="1" vertex="1">
          <mxGeometry x="40" y="40" width="160" height="120" as="geometry" />
        </mxCell>
        <mxCell id="ei4-Yj0OnqYiABqFhU_M-6" value="&lt;u&gt;muzikantnummer&lt;/u&gt;&lt;div&gt;naam&lt;/div&gt;&lt;div&gt;instrument&lt;/div&gt;" style="align=left;strokeColor=none;fillColor=none;spacingLeft=4;spacingRight=4;fontSize=12;verticalAlign=top;resizable=0;rotatable=0;part=1;html=1;whiteSpace=wrap;" parent="ei4-Yj0OnqYiABqFhU_M-5" vertex="1">
          <mxGeometry y="50" width="160" height="70" as="geometry" />
        </mxCell>
        <mxCell id="ei4-Yj0OnqYiABqFhU_M-9" value="" style="endArrow=ERmandOne;html=1;rounded=0;exitX=1;exitY=0.25;exitDx=0;exitDy=0;entryX=0;entryY=0.25;entryDx=0;entryDy=0;startArrow=ERoneToMany;startFill=0;endFill=0;" parent="1" source="ei4-Yj0OnqYiABqFhU_M-6" target="ei4-Yj0OnqYiABqFhU_M-2" edge="1">
          <mxGeometry relative="1" as="geometry">
            <mxPoint x="480" y="330" as="sourcePoint" />
            <mxPoint x="640" y="330" as="targetPoint" />
          </mxGeometry>
        </mxCell>
        <mxCell id="ei4-Yj0OnqYiABqFhU_M-14" value="is lid van" style="edgeLabel;html=1;align=center;verticalAlign=middle;resizable=0;points=[];" parent="ei4-Yj0OnqYiABqFhU_M-9" vertex="1" connectable="0">
          <mxGeometry x="-0.3133" y="2" relative="1" as="geometry">
            <mxPoint x="19" y="-15" as="offset" />
          </mxGeometry>
        </mxCell>
        <mxCell id="ei4-Yj0OnqYiABqFhU_M-11" value="" style="endArrow=ERoneToMany;html=1;rounded=0;exitX=1;exitY=0.25;exitDx=0;exitDy=0;entryX=0;entryY=0.25;entryDx=0;entryDy=0;startArrow=ERoneToMany;startFill=0;endFill=0;" parent="1" source="ei4-Yj0OnqYiABqFhU_M-2" target="ei4-Yj0OnqYiABqFhU_M-4" edge="1">
          <mxGeometry relative="1" as="geometry">
            <mxPoint x="550" y="330" as="sourcePoint" />
            <mxPoint x="710" y="330" as="targetPoint" />
          </mxGeometry>
        </mxCell>
        <mxCell id="ei4-Yj0OnqYiABqFhU_M-16" value="uitgevoerd door" style="edgeLabel;html=1;align=center;verticalAlign=middle;resizable=0;points=[];" parent="ei4-Yj0OnqYiABqFhU_M-11" vertex="1" connectable="0">
          <mxGeometry x="-0.1967" y="-1" relative="1" as="geometry">
            <mxPoint x="12" y="12" as="offset" />
          </mxGeometry>
        </mxCell>
        <mxCell id="ei4-Yj0OnqYiABqFhU_M-13" value="Er zijn geen voorbeelden van, maar er kan een cover van een lied worden uitgebracht. Dus hetzelfde lied door meerdere bands.&lt;div&gt;&lt;br&gt;&lt;/div&gt;&lt;div&gt;Daarom de &quot;many&quot; aan de Band kant.&lt;/div&gt;" style="shape=note2;boundedLbl=1;whiteSpace=wrap;html=1;size=25;verticalAlign=top;align=center;" parent="1" vertex="1">
          <mxGeometry x="425" y="170" width="250" height="130" as="geometry" />
        </mxCell>
      </root>
    </mxGraphModel>
  </diagram>
</mxfile>
